<?xml version="1.0" standalone="no"?>
<!DOCTYPE svg PUBLIC "-//W3C//DTD SVG 20010904//EN"
 "http://www.w3.org/TR/2001/REC-SVG-20010904/DTD/svg10.dtd">
<svg version="1.0" xmlns="http://www.w3.org/2000/svg"
 width="500.000000pt" height="500.000000pt" viewBox="0 0 500.000000 500.000000"
 preserveAspectRatio="xMidYMid meet">
<metadata>
Created by potrace 1.14, written by Peter Selinger 2001-2017
</metadata>
<g transform="translate(0.000000,500.000000) scale(0.100000,-0.100000)"
fill="#000000" stroke="none">
<path d="M2345 3533 c-38 -8 -91 -24 -117 -35 -66 -28 -107 -78 -88 -107 4 -7
4 -28 0 -47 -4 -19 -4 -34 0 -34 9 0 7 -26 -3 -36 -4 -4 -2 -13 5 -21 8 -10 8
-17 0 -25 -7 -7 -8 -17 -2 -29 6 -11 6 -20 1 -24 -5 -3 -7 -18 -4 -33 2 -15 6
-49 8 -77 5 -64 8 -80 22 -96 6 -8 12 -17 12 -21 5 -29 32 -67 87 -122 64 -63
206 -156 248 -163 43 -7 119 27 177 80 10 9 19 14 19 11 0 -4 12 5 26 20 15
14 30 26 34 26 3 0 13 11 20 25 7 13 16 22 20 20 4 -3 13 9 20 25 7 17 16 30
21 30 8 0 27 37 26 50 0 3 6 16 13 30 10 18 14 80 15 235 1 116 0 215 -3 222
-5 16 -57 45 -109 62 -24 8 -43 17 -43 21 0 4 -6 7 -12 7 -7 0 -26 4 -43 8
-61 15 -278 14 -350 -2z m245 -53 c44 -2 125 -21 184 -43 30 -11 86 -57 70
-57 -6 0 -10 -9 -10 -20 0 -11 3 -20 6 -20 6 0 5 -36 0 -50 -6 -13 -5 -57 2
-77 4 -12 3 -25 -2 -28 -5 -3 -5 -18 0 -35 6 -21 5 -30 -3 -30 -8 0 -8 -3 0
-11 7 -7 8 -21 3 -40 -5 -16 -9 -32 -9 -34 -1 -28 -15 -75 -22 -75 -5 0 -8 -3
-7 -7 6 -18 -137 -161 -154 -155 -5 1 -8 -3 -8 -9 0 -5 -4 -8 -8 -5 -5 3 -16
-4 -25 -15 -18 -20 -42 -25 -52 -10 -3 5 -1 12 5 16 6 4 7 13 1 23 -4 9 -7 27
-6 40 1 19 -3 22 -32 22 -27 0 -33 -4 -34 -22 -4 -93 -1 -90 -64 -52 -25 14
-45 30 -45 36 0 5 -4 7 -8 4 -10 -6 -124 109 -115 118 3 3 1 6 -6 6 -7 0 -9 5
-6 10 3 6 2 10 -3 10 -13 0 -35 56 -27 69 3 6 2 11 -2 11 -7 0 -9 181 -4 336
1 15 13 27 39 40 20 9 39 17 42 17 3 -1 11 3 18 9 6 6 12 7 12 4 0 -4 9 -2 19
4 11 5 41 12 67 16 27 3 50 6 51 8 2 1 22 1 45 0 24 -1 63 -3 88 -4z"/>
<path d="M2342 3402 c-45 -7 -121 -102 -80 -102 6 0 8 3 5 7 -10 9 62 42 91
43 13 0 20 -4 17 -10 -3 -5 -2 -10 4 -10 17 0 51 -42 44 -54 -3 -6 -3 -8 2 -4
4 4 14 3 20 -2 18 -15 45 -1 45 24 -1 35 -76 106 -104 98 -5 -2 -12 1 -15 5
-3 5 -16 7 -29 5z"/>
<path d="M2610 3369 c-22 -16 -40 -36 -40 -44 0 -8 -4 -15 -9 -15 -6 0 -9 -9
-8 -20 1 -11 4 -20 8 -20 3 0 6 -10 5 -22 -1 -18 8 -24 54 -35 64 -16 118 -17
137 -1 17 13 17 48 1 49 -69 6 -109 5 -114 -2 -7 -12 -44 -12 -44 0 0 4 17 28
39 52 47 54 76 59 118 21 31 -27 70 -46 46 -21 -6 6 -9 18 -6 26 3 7 2 13 -3
11 -5 -2 -9 1 -9 5 0 15 -59 41 -97 43 -28 1 -48 -6 -78 -27z"/>
<path d="M2310 3261 c-8 -5 -17 -8 -21 -5 -4 2 -10 -3 -13 -12 -9 -25 23 -43
75 -44 57 0 85 18 67 42 -15 20 -87 33 -108 19z"/>
<path d="M2278 3058 c-3 -7 6 -24 18 -37 13 -14 21 -28 18 -33 -3 -4 0 -8 5
-8 6 0 11 -7 11 -15 0 -8 4 -15 9 -15 5 0 11 -9 14 -20 4 -17 14 -20 62 -20
31 0 69 7 86 15 26 14 30 14 35 0 5 -11 21 -15 68 -14 57 0 100 9 96 19 -4 11
24 60 33 60 6 0 8 3 4 6 -3 3 3 15 14 27 28 31 25 50 -6 35 -14 -6 -25 -15
-25 -20 0 -4 -8 -8 -17 -8 -9 0 -13 -3 -10 -6 7 -7 -29 -38 -53 -46 -8 -2 -31
12 -52 31 -51 48 -91 50 -131 4 -42 -48 -64 -43 -137 30 -30 30 -37 32 -42 15z"/>
<path d="M79 2808 c-7 -21 -3 -108 5 -111 9 -3 1811 -1 1827 2 8 2 5 95 -3
101 -7 6 -1827 13 -1829 8z"/>
<path d="M3135 2800 c-8 -14 -2 -91 8 -97 13 -8 1816 -12 1818 -3 6 31 3 100
-6 103 -15 6 -1816 3 -1820 -3z"/>
<path d="M3017 2246 c-54 -20 -101 -59 -123 -103 -22 -47 -24 -78 -8 -120 7
-18 10 -33 7 -33 -14 0 72 -71 101 -84 34 -15 65 -27 81 -32 58 -16 113 -51
116 -73 0 -3 2 -14 4 -23 2 -10 -1 -18 -6 -18 -6 0 -7 -4 -4 -10 3 -5 -9 -19
-27 -30 -26 -16 -44 -19 -87 -14 -50 5 -118 34 -132 56 -6 10 -58 -10 -58 -22
1 -17 -15 -39 -24 -33 -6 4 -8 -2 -4 -18 4 -13 7 -27 7 -30 0 -3 16 -11 35
-19 19 -8 35 -18 35 -22 0 -5 5 -6 10 -3 6 3 10 2 10 -2 0 -11 20 -14 139 -17
94 -3 156 10 173 38 4 6 8 7 8 2 0 -5 15 7 34 26 49 50 60 99 42 192 -5 25
-15 42 -51 82 -16 17 -65 41 -136 65 -35 12 -76 29 -91 37 -28 16 -43 48 -27
58 5 3 7 9 4 14 -8 13 29 30 72 34 43 3 86 -9 125 -36 33 -23 32 -23 63 10 50
54 42 76 -42 114 -59 26 -189 33 -246 14z"/>
<path d="M1823 2232 c-16 -17 -17 -26 0 -16 9 6 9 5 0 -8 -7 -8 -10 -18 -6
-21 3 -4 2 -7 -4 -7 -5 0 -10 -6 -10 -12 -1 -22 -11 -67 -18 -78 -3 -5 -8 -18
-10 -27 -1 -10 -13 -52 -26 -93 -13 -41 -22 -78 -21 -82 1 -5 -3 -8 -9 -8 -5
0 -7 -4 -4 -10 3 -5 1 -10 -5 -10 -6 0 -8 -4 -5 -10 3 -5 -1 -20 -10 -33 -8
-13 -13 -26 -10 -29 3 -3 -1 -23 -9 -46 -8 -22 -12 -43 -9 -46 4 -3 1 -6 -5
-6 -7 0 -12 -10 -12 -23 0 -13 -5 -28 -10 -33 -20 -20 15 -34 86 -37 51 -1 68
1 66 11 -1 6 2 12 8 12 6 0 9 3 8 8 -1 4 4 31 11 60 l13 53 92 -3 c73 -2 91
-6 91 -18 0 -8 4 -21 8 -27 5 -7 5 -13 1 -13 -3 0 -2 -6 3 -12 5 -7 9 -20 8
-28 -1 -19 24 -45 42 -44 7 1 39 2 71 3 55 1 58 2 58 26 0 14 -4 25 -9 25 -5
0 -7 9 -4 20 3 11 1 23 -4 26 -5 3 -9 14 -9 25 0 10 -5 19 -11 19 -5 0 -7 5
-4 10 4 6 2 16 -3 23 -8 10 -24 59 -37 112 -1 6 -5 17 -8 25 -11 31 -47 150
-50 167 -1 10 -5 23 -8 28 -3 6 -11 30 -18 55 -26 88 -22 85 -118 85 -58 0
-91 -4 -100 -13z m110 -149 c-5 -12 -3 -14 8 -8 11 6 12 5 2 -5 -8 -8 -9 -18
-4 -24 5 -6 12 -27 15 -46 3 -19 11 -59 18 -87 6 -29 10 -55 7 -57 -4 -5 -90
-10 -116 -7 -13 1 -11 20 5 61 5 14 10 28 10 33 1 15 14 73 24 107 6 19 12 41
14 48 2 7 8 11 13 7 6 -3 7 -13 4 -22z"/>
<path d="M2289 2238 c0 -7 -1 -121 -2 -253 -1 -132 -5 -245 -9 -251 -4 -6 -4
-14 0 -18 3 -4 8 -28 9 -53 1 -26 6 -50 11 -55 10 -10 130 -13 140 -3 4 3 7
59 7 123 0 110 1 117 20 117 12 0 25 -11 34 -30 8 -16 18 -31 23 -33 4 -2 8
-13 8 -23 0 -11 5 -17 10 -14 6 3 10 -2 10 -13 0 -10 9 -28 19 -39 11 -12 17
-23 14 -26 -5 -5 2 -16 35 -52 9 -10 30 -13 72 -11 38 2 60 -1 60 -8 0 -6 5
-4 10 4 5 8 10 11 10 5 0 -5 4 -4 9 4 10 15 -5 50 -26 64 -7 4 -13 13 -13 19
0 11 -48 87 -61 98 -4 3 -16 21 -27 42 l-21 36 37 26 c44 30 76 71 79 100 16
127 -21 197 -122 231 -66 22 -335 33 -336 13z m286 -132 c23 -23 23 -84 0
-119 -17 -26 -24 -29 -95 -30 l-34 -1 -1 88 -1 88 57 -4 c36 -3 63 -10 74 -22z"/>
</g>
</svg>
